<?xml version="1.0" standalone="no"?>
<!DOCTYPE svg PUBLIC "-//W3C//DTD SVG 20010904//EN"
 "http://www.w3.org/TR/2001/REC-SVG-20010904/DTD/svg10.dtd">
<svg version="1.0" xmlns="http://www.w3.org/2000/svg"
 width="1000.000000pt" height="1000.000000pt" viewBox="0 0 1000.000000 1000.000000"
 preserveAspectRatio="xMidYMid meet">
<metadata>
Created by potrace 1.14, written by Peter Selinger 2001-2017
</metadata>
<g transform="translate(0.000000,1000.000000) scale(0.100000,-0.100000)"
fill="#000000" stroke="none">
<path d="M4738 9995 c-2 -1 -52 -6 -113 -9 -60 -4 -119 -9 -130 -11 -11 -2
-47 -7 -80 -10 -33 -3 -69 -7 -81 -9 -12 -2 -45 -7 -74 -11 -29 -4 -62 -9 -74
-11 -12 -2 -34 -6 -51 -9 -16 -3 -41 -7 -55 -9 -14 -3 -70 -14 -125 -26 -55
-12 -116 -25 -135 -30 -108 -22 -409 -115 -570 -175 -503 -188 -1011 -481
-1425 -823 -218 -180 -446 -404 -615 -602 -30 -36 -57 -67 -60 -70 -9 -8 -143
-181 -191 -245 -212 -287 -421 -655 -565 -997 -33 -79 -46 -113 -43 -113 1 0
-3 -11 -11 -24 -15 -29 -106 -285 -125 -356 -60 -214 -79 -287 -105 -410 -29
-137 -53 -276 -64 -365 -22 -177 -26 -209 -33 -314 -15 -199 -7 -760 11 -866
3 -14 8 -52 11 -85 6 -65 32 -245 40 -285 3 -14 7 -36 10 -50 30 -197 183
-736 254 -895 5 -11 32 -76 62 -145 117 -278 266 -554 432 -805 54 -81 214
-301 241 -332 6 -7 16 -18 21 -25 151 -196 425 -480 635 -660 30 -26 66 -57
80 -69 109 -94 316 -243 566 -407 10 -7 27 -15 37 -18 9 -4 17 -10 17 -15 0
-5 5 -9 10 -9 6 0 27 -10 48 -23 160 -101 506 -265 762 -362 195 -75 534 -172
725 -210 17 -3 41 -8 55 -10 139 -27 204 -38 345 -55 50 -6 104 -13 120 -15
189 -26 846 -26 1007 0 13 2 50 6 83 9 33 4 71 8 85 10 14 3 48 7 75 11 170
21 560 111 763 176 610 195 1221 529 1680 916 11 10 29 26 41 35 193 161 461
432 621 628 25 30 49 60 55 66 5 7 25 32 43 55 18 24 50 67 71 94 48 63 220
316 252 372 13 23 47 81 75 130 62 108 192 365 229 453 15 36 35 83 45 105 19
42 108 278 133 355 43 129 136 486 152 580 3 19 10 58 15 85 10 54 15 81 26
160 3 28 8 59 10 70 2 11 7 47 10 80 3 33 7 71 10 85 26 162 25 814 -1 1005
-2 17 -6 53 -9 80 -9 84 -17 136 -33 230 -8 50 -17 104 -20 120 -3 17 -20 98
-39 180 -20 83 -37 158 -39 169 -17 76 -134 434 -174 531 -203 488 -400 840
-676 1205 -180 237 -403 480 -629 685 -49 44 -94 85 -100 90 -26 25 -265 214
-306 243 -354 251 -638 411 -1045 587 -183 79 -609 215 -755 241 -14 3 -34 8
-45 11 -11 3 -29 7 -40 8 -11 2 -38 8 -60 14 -73 19 -359 62 -507 76 -40 4
-89 9 -108 11 -40 5 -647 14 -652 9z"/>
</g>
</svg>
